<?xml version="1.0" standalone="no"?>
<!DOCTYPE svg PUBLIC "-//W3C//DTD SVG 20010904//EN"
 "http://www.w3.org/TR/2001/REC-SVG-20010904/DTD/svg10.dtd">
<svg version="1.0" xmlns="http://www.w3.org/2000/svg"
 width="1024.000000pt" height="1024.000000pt" viewBox="0 0 1024.000000 1024.000000"
 preserveAspectRatio="xMidYMid meet">

<g transform="translate(0.000000,1024.000000) scale(0.100000,-0.100000)"
fill="#000000" stroke="none">
<path d="M3273 8374 c85 -20 195 -74 282 -138 42 -32 82 -59 89 -62 9 -3 22
12 35 40 53 109 216 114 286 8 32 -48 39 -89 26 -139 -14 -52 -55 -88 -113
-98 -31 -6 -37 -9 -20 -12 12 -3 22 -8 22 -12 0 -4 32 -61 72 -127 121 -202
156 -285 197 -464 55 -243 54 -491 -4 -797 -34 -179 -54 -237 -150 -453 -123
-277 -130 -301 -129 -450 1 -132 13 -197 57 -308 29 -71 18 -75 -13 -4 -39 87
-61 185 -67 297 -7 144 13 223 111 434 116 248 153 366 181 580 19 141 19 419
0 546 -23 149 -84 363 -133 460 -35 70 -131 215 -143 215 -6 0 -6 -7 1 -19 32
-61 61 -167 66 -248 7 -96 -2 -203 -16 -203 -5 0 -7 7 -3 16 3 8 1 25 -5 37
-5 12 -18 44 -27 70 -9 26 -44 85 -77 130 -85 116 -102 130 -37 32 58 -89 149
-347 183 -522 31 -160 65 -618 45 -595 -4 4 -31 85 -60 179 -29 95 -54 172
-55 170 -1 -1 2 -42 8 -92 25 -216 -14 -564 -84 -765 -47 -134 -54 -198 -39
-354 20 -206 59 -300 198 -473 158 -198 227 -384 208 -563 l-7 -65 -18 45
c-75 189 -208 300 -333 276 -28 -5 -36 -13 -47 -45 -7 -21 -10 -43 -7 -48 4
-6 0 -19 -8 -29 -13 -18 -14 -18 -25 11 -6 16 -9 40 -7 53 l4 23 -23 -22 c-62
-58 -67 -132 -11 -197 28 -33 29 -35 7 -21 -55 34 -85 138 -59 206 26 70 151
157 243 169 64 9 108 -2 165 -41 35 -24 48 -29 43 -17 -21 50 -62 116 -122
197 -176 239 -207 294 -236 431 -23 112 -32 90 -33 -76 -1 -137 3 -148 67
-208 17 -16 32 -37 32 -46 0 -9 6 -16 13 -17 6 0 -3 -5 -20 -10 -24 -7 -39
-21 -53 -49 -24 -48 -32 -51 -20 -9 11 38 26 56 51 64 28 9 24 18 -30 80 -29
33 -51 69 -55 90 -4 19 -10 35 -14 35 -9 0 -32 -95 -32 -131 0 -29 -17 -49
-42 -49 -13 0 -23 -18 -38 -67 -70 -224 -40 -432 79 -555 55 -56 59 -58 107
-58 45 0 55 4 88 36 l38 37 -17 -32 c-12 -23 -32 -40 -71 -57 -66 -29 -69 -29
-141 -2 -114 42 -207 171 -239 332 -14 65 -14 93 -5 165 18 144 118 440 143
425 5 -3 7 -2 6 3 -1 4 8 28 20 53 26 51 23 49 -51 -44 -65 -82 -134 -207
-153 -279 -23 -87 -29 -309 -10 -397 29 -136 56 -187 133 -249 105 -85 362
-313 425 -378 73 -75 160 -198 208 -293 71 -141 105 -282 113 -470 4 -91 4
-92 -5 -30 -20 136 -91 340 -118 340 -5 0 2 -19 15 -42 46 -83 76 -213 84
-358 4 -74 4 -142 0 -151 -4 -8 -17 -60 -28 -115 -28 -143 -62 -224 -145 -349
-142 -215 -164 -254 -198 -350 -31 -85 -52 -220 -45 -280 2 -25 3 -45 1 -45
-2 0 -14 19 -28 43 -33 56 -50 161 -43 261 6 83 48 233 70 251 23 19 82 100
62 85 -67 -50 -149 -128 -176 -168 l-31 -47 5 47 c5 57 36 100 112 160 30 24
52 49 50 56 -3 6 1 12 8 12 7 0 22 7 33 16 10 8 13 12 5 8 -11 -5 -13 -3 -8
11 6 14 3 16 -13 12 -13 -3 -20 0 -20 9 0 8 -6 14 -12 15 -7 0 1 5 17 10 28 8
100 86 151 164 24 37 33 30 23 -16 -18 -77 -4 -62 53 57 59 124 90 231 86 295
-1 31 -7 40 -29 50 -17 6 -41 8 -61 3 -18 -4 -27 -9 -20 -11 6 -3 12 -14 12
-24 0 -11 4 -18 9 -14 5 3 12 -3 14 -12 4 -16 5 -16 6 -1 0 9 -3 20 -9 23 -5
3 -10 12 -10 18 1 7 10 1 20 -12 13 -15 20 -38 20 -67 0 -40 -5 -50 -53 -99
-53 -55 -54 -55 -113 -55 -70 0 -125 23 -183 75 -41 37 -52 69 -28 78 9 4 9 7
0 14 -7 5 -15 38 -18 73 -3 36 -10 91 -16 122 -15 74 -9 92 51 157 28 30 55
72 62 93 11 39 11 39 -38 89 -27 28 -61 57 -75 64 -25 14 -27 13 -32 -11 -3
-17 3 -34 18 -52 12 -15 20 -33 18 -39 -3 -7 3 -13 11 -13 22 0 30 -24 16 -49
-12 -23 -64 -54 -74 -44 -3 4 -6 -1 -6 -10 0 -30 -21 -62 -55 -85 -31 -19 -35
-27 -35 -63 0 -58 26 -105 72 -133 39 -23 40 -24 19 -36 -25 -13 -74 -6 -109
17 -39 24 -61 88 -62 173 -1 68 -2 73 -15 55 -8 -11 -18 -25 -23 -30 -5 -6
-14 -211 -20 -455 -13 -499 -22 -582 -87 -770 -64 -184 -159 -337 -287 -463
l-69 -67 2304 0 2304 0 6 193 c11 317 21 1319 13 1360 l-7 37 -59 0 c-53 0
-60 -2 -60 -19 0 -11 5 -23 11 -27 22 -13 5 -228 -25 -319 -56 -176 -149 -328
-281 -461 -229 -230 -556 -368 -1010 -425 -60 -7 -402 -12 -1015 -13 -509 -1
-880 1 -825 5 287 21 618 42 760 48 88 4 151 9 140 10 -55 4 -221 82 -337 157
-36 23 -100 75 -142 114 -213 203 -309 415 -355 785 -35 281 -36 334 -36 2385
l0 2025 32 95 c70 205 200 366 366 451 33 17 57 36 57 45 0 9 -12 33 -27 55
l-28 39 -760 -1 c-673 -1 -753 -2 -702 -15z m477 -3326 c0 -12 -14 -10 -28 4
-19 19 -14 29 8 16 11 -7 20 -16 20 -20z m64 -284 c21 -20 20 -53 -1 -76 -20
-23 -25 -23 -52 1 -21 18 -22 23 -11 55 13 40 37 47 64 20z m53 -66 c-3 -8 -6
-5 -6 6 -1 11 2 17 5 13 3 -3 4 -12 1 -19z m84 -251 l40 -79 -20 -19 c-12 -11
-18 -26 -15 -37 5 -14 3 -14 -10 2 -9 11 -16 26 -16 34 0 7 -4 11 -9 8 -24
-15 -81 65 -71 99 1 6 9 35 17 65 22 85 25 89 35 46 4 -22 27 -75 49 -119z
m266 -1149 c-2 -13 -4 -5 -4 17 -1 22 1 32 4 23 2 -10 2 -28 0 -40z m-587 -21
c14 -12 19 -18 10 -12 -8 5 -1 -6 17 -25 17 -19 45 -64 62 -100 28 -59 31 -75
31 -162 0 -99 -8 -118 -34 -82 -10 13 -16 6 -40 -49 -27 -65 -76 -124 -94
-113 -5 3 -12 40 -14 82 -4 56 -10 81 -22 89 -12 9 -16 28 -16 76 0 83 14 132
50 172 25 29 27 35 16 56 -7 12 -32 38 -55 56 l-41 33 27 10 c33 11 68 1 103
-31z"/>
<path d="M3828 8263 c6 -2 18 -2 25 0 6 3 1 5 -13 5 -14 0 -19 -2 -12 -5z"/>
<path d="M3810 8227 c-13 -7 -34 -27 -46 -44 -12 -18 -25 -29 -30 -25 -5 4 7
-8 26 -26 19 -18 52 -41 72 -52 37 -20 66 -28 39 -11 -12 8 -12 12 -2 25 11
13 11 22 1 46 -7 16 -17 30 -22 30 -5 0 -6 -5 -3 -10 7 -12 -22 -26 -33 -16
-3 4 0 11 8 16 11 7 6 10 -20 10 l-35 1 29 25 c24 21 36 25 65 20 33 -5 35 -4
17 9 -24 18 -34 18 -66 2z"/>
<path d="M2787 8111 c-30 -33 -51 -61 -45 -63 7 -3 2 -32 -16 -82 -20 -54 -29
-102 -31 -159 -2 -51 0 -74 5 -62 l9 20 0 -20 c1 -11 14 -43 31 -71 34 -61 84
-89 180 -105 57 -9 64 -8 81 10 32 34 18 71 -28 71 -20 0 -21 -3 -13 -24 7
-18 5 -28 -6 -37 -23 -19 -66 8 -78 49 -6 20 -14 31 -22 28 -15 -6 -38 55 -31
81 17 61 18 78 6 66 -7 -7 -13 -37 -13 -68 -1 -47 -3 -52 -15 -40 -20 20 -26
124 -11 171 7 22 21 51 31 66 27 37 24 55 -14 93 -28 28 -32 37 -23 54 6 11
13 19 16 19 13 -3 50 24 45 33 -4 5 -1 9 4 9 6 0 11 5 11 10 0 21 -19 8 -73
-49z"/>
<path d="M2953 8106 c-44 -14 -117 -55 -110 -63 3 -2 26 1 51 8 186 47 370
-67 504 -311 23 -41 42 -72 42 -68 0 17 -64 168 -97 226 -44 80 -125 161 -194
195 -60 30 -126 34 -196 13z"/>
<path d="M2988 7973 c7 -3 16 -2 19 1 4 3 -2 6 -13 5 -11 0 -14 -3 -6 -6z"/>
<path d="M3817 7957 c18 -34 35 -46 48 -34 15 14 1 30 -33 39 -15 4 -20 2 -15
-5z"/>
<path d="M2855 7869 c-13 -23 -14 -34 -5 -43 8 -8 16 -5 30 14 11 14 19 31 17
39 -4 27 -26 22 -42 -10z"/>
<path d="M3122 7650 c0 -14 2 -19 5 -12 2 6 2 18 0 25 -3 6 -5 1 -5 -13z"/>
<path d="M3120 7591 c0 -17 -4 -32 -9 -35 -5 -4 -7 4 -4 16 3 13 3 20 0 17 -4
-3 -8 -15 -10 -26 -1 -12 -9 -28 -16 -37 -7 -9 -10 -16 -6 -16 20 0 -70 -51
-112 -64 l-48 -15 39 0 c51 -1 116 30 145 70 22 29 42 119 27 119 -3 0 -6 -13
-6 -29z"/>
<path d="M3402 7203 c0 -16 0 -287 0 -603 0 -316 2 -603 5 -638 3 -41 1 -68
-7 -77 -6 -8 -8 -20 -4 -26 5 -8 3 -9 -6 -4 -10 6 -12 4 -7 -8 3 -9 3 -16 -1
-15 -4 2 -19 -6 -35 -16 -39 -27 -55 -10 -49 53 4 44 2 50 -19 56 -30 10 -59
-25 -59 -71 0 -44 43 -91 90 -99 30 -5 40 -2 64 21 l27 28 -7 -29 c-4 -17 -8
-37 -8 -46 0 -17 -1 -18 -72 -25 -59 -7 -122 19 -149 60 -23 34 -24 116 -2
149 41 63 145 84 189 37 23 -25 28 -25 28 -1 0 43 -112 105 -145 80 -5 -4 -26
-9 -45 -11 -19 -1 -39 -10 -45 -19 -5 -8 -20 -31 -32 -49 -33 -51 -40 -113
-17 -167 16 -37 31 -52 83 -84 44 -26 76 -39 100 -39 47 1 163 33 196 54 55
36 79 108 89 268 4 56 9 126 12 153 8 65 -5 52 -45 -45 -17 -41 -40 -88 -52
-105 l-21 -30 6 40 c3 22 10 63 16 90 6 28 19 118 30 201 13 99 32 189 55 263
19 62 35 118 35 125 0 8 -20 -6 -44 -30 -51 -51 -74 -58 -52 -16 20 40 27 440
7 428 -4 -3 -12 -25 -16 -48 l-8 -43 -8 55 c-3 30 -15 87 -25 125 -17 62 -19
66 -24 40 l-6 -30 -5 27 c-4 15 -1 32 4 37 8 8 6 11 -6 11 -11 0 -16 -8 -15
-27z m-265 -1445 c-3 -7 -5 -2 -5 12 0 14 2 19 5 13 2 -7 2 -19 0 -25z"/>
<path d="M3490 7147 c-7 -37 -10 -70 -8 -73 7 -7 31 112 26 128 -3 7 -11 -18
-18 -55z"/>
<path d="M3654 6383 c4 -7 3 -13 -3 -13 -14 0 -27 -83 -41 -250 -6 -80 -17
-174 -25 -210 -17 -80 -12 -91 9 -19 43 151 85 474 64 494 -8 7 -9 6 -4 -2z"/>
<path d="M3734 6048 c-54 -144 -127 -273 -200 -353 -62 -68 -44 -57 29 17 95
97 158 194 180 278 16 58 28 130 22 130 -2 0 -16 -33 -31 -72z"/>
<path d="M3194 6045 c-17 -13 -15 -13 21 -4 21 6 59 9 83 6 28 -3 39 -2 31 4
-23 14 -113 10 -135 -6z"/>
<path d="M3420 5599 c-42 -28 -50 -30 -123 -27 -69 3 -75 2 -50 -9 15 -7 43
-15 60 -19 18 -3 30 -10 27 -15 -3 -5 -3 -9 1 -9 6 0 135 102 135 107 0 5 -2
4 -50 -28z"/>
<path d="M3171 5073 c1 -65 5 -61 12 10 2 26 1 47 -4 47 -5 0 -9 -26 -8 -57z"/>
<path d="M3171 4964 c-2 -24 31 -101 55 -129 l26 -30 -22 32 c-11 18 -30 56
-40 85 -10 29 -19 48 -19 42z"/>
<path d="M3148 4454 c-109 -33 -145 -178 -60 -244 33 -26 46 -16 26 21 -13 25
-13 39 -4 87 7 31 22 68 34 81 25 28 74 51 113 52 l28 1 -25 8 c-36 12 -59 10
-112 -6z"/>
<path d="M3550 4416 c0 -2 8 -10 18 -17 15 -13 16 -12 3 4 -13 16 -21 21 -21
13z"/>
<path d="M3165 4350 c-14 -15 -25 -36 -25 -48 0 -21 0 -21 24 3 51 51 122 42
144 -17 19 -50 -2 -95 -64 -139 -40 -27 -58 -33 -99 -32 -45 0 -47 0 -23 -10
15 -6 29 -21 32 -33 9 -36 58 -41 113 -12 60 30 85 65 91 127 6 63 -8 97 -59
146 -50 48 -98 53 -134 15z"/>
<path d="M3590 4376 c0 -2 8 -10 18 -17 15 -13 16 -12 3 4 -13 16 -21 21 -21
13z"/>
<path d="M3176 4292 c-15 -18 -15 -20 4 -37 13 -12 29 -16 47 -12 l28 5 -24
-19 c-13 -10 -18 -19 -12 -19 14 0 51 36 51 50 0 15 -42 50 -60 50 -9 0 -24
-8 -34 -18z"/>
<path d="M3378 4298 c8 -8 12 -63 13 -172 2 -160 14 -479 17 -441 1 11 11 37
22 58 11 20 16 37 10 37 -24 0 -6 28 43 67 43 34 56 50 70 95 20 64 22 112 5
159 -19 57 -79 140 -127 175 -45 33 -77 46 -53 22z"/>
<path d="M3687 4245 c16 -22 44 -66 63 -97 26 -44 36 -54 43 -43 8 16 -21 58
-97 139 l-38 41 29 -40z"/>
<path d="M3800 4103 c0 -5 7 -18 15 -29 12 -16 14 -16 15 -3 0 9 -7 22 -15 29
-8 7 -15 8 -15 3z"/>
<path d="M3685 4048 c22 -27 41 -48 42 -48 10 0 -19 39 -48 65 -30 28 -29 26
6 -17z"/>
<path d="M3796 3744 c-4 -32 -1 -81 6 -114 11 -57 11 -59 -19 -106 -49 -77
-59 -124 -39 -177 9 -25 32 -62 50 -83 l34 -39 80 1 c54 0 87 5 98 15 16 12
17 12 9 -1 -4 -8 4 -4 18 9 31 28 36 46 10 34 -17 -8 -29 -8 -75 -4 -21 1 -46
46 -58 104 -9 38 -9 36 -4 -17 5 -59 4 -59 -15 -42 -27 24 -34 66 -21 115 13
49 43 72 114 87 l51 11 -29 12 c-16 6 -26 14 -23 17 3 3 14 1 25 -5 46 -25 43
-7 -11 56 -24 28 -77 80 -119 116 l-75 66 -7 -55z m164 -198 c0 -2 -7 -6 -15
-10 -8 -3 -15 -1 -15 4 0 6 7 10 15 10 8 0 15 -2 15 -4z"/>
<path d="M4028 3503 c6 -2 18 -2 25 0 6 3 1 5 -13 5 -14 0 -19 -2 -12 -5z"/>
<path d="M4123 3447 c26 -38 46 -112 48 -170 0 -31 17 -84 18 -60 1 6 4 20 7
30 4 12 3 14 -3 6 -5 -8 -9 10 -10 48 -2 65 -28 133 -65 165 -17 16 -16 13 5
-19z"/>
<path d="M3960 3432 c-13 -10 -21 -23 -19 -29 2 -5 14 3 27 19 27 32 24 36 -8
10z"/>
<path d="M4036 3438 c3 -4 9 -8 15 -8 5 0 9 4 9 8 0 5 -7 9 -15 9 -8 0 -12 -4
-9 -9z"/>
</g>
</svg>
